<svg width="48" height="48" viewBox="0 0 48 48" fill="none" xmlns="http://www.w3.org/2000/svg">
  <rect width="48" height="48" rx="8" fill="#101F4D"/>
  <path d="M14.5 30V18H24.5C26.5 18 28 18.5 29 19.5C30 20.5 30.5 21.8333 30.5 23.5C30.5 25.1667 30 26.5 29 27.5C28 28.5 26.5 29 24.5 29H18.5V30H14.5ZM18.5 25H23.5C24.1667 25 24.6667 24.8333 25 24.5C25.3333 24.1667 25.5 23.6667 25.5 23C25.5 22.3333 25.3333 21.8333 25 21.5C24.6667 21.1667 24.1667 21 23.5 21H18.5V25Z" fill="white"/>
  <path d="M31.5 30V18H35.5V30H31.5Z" fill="#FA8700"/>
</svg>